<?xml version="1.0" encoding="utf-8"?>
<!-- Generator: Adobe Illustrator 22.1.0, SVG Export Plug-In . SVG Version: 6.00 Build 0)  -->
<svg version="1.1" id="Layer_1" xmlns="http://www.w3.org/2000/svg" xmlns:xlink="http://www.w3.org/1999/xlink" x="0px" y="0px"
	 viewBox="0 0 150 75" style="enable-background:new 0 0 150 75;" xml:space="preserve">
<style type="text/css">
	.st0{fill:#EF3E44;}
	.st1{fill:#F69F1A;}
</style>
<g>
	<path class="st0" d="M-111.1,43.7c-16.4-4-36.5-9-52,0.4c-0.2,0.1-0.3-0.1-0.2-0.2c6.3-6.3,15.7-7.1,24.3-7
		c9.5,0.2,19.5,1.9,28.6,4.8C-109.2,42.1-109.8,44-111.1,43.7z"/>
	<path class="st0" d="M-101.6,44.9c0,0.2,0,0.5-0.2,0.6c-0.7,0.5-1.3,0.2-2-0.1c-0.4-0.2-0.7-0.3-1-0.6c-0.2-0.1-0.3-0.2-0.4-0.4
		l0,0l-0.1,0c-0.3-0.2-0.1-0.7,0.2-0.7l0.1,0c0.2-0.2,0.5-0.2,0.7-0.1C-103.4,43.6-101.8,43.9-101.6,44.9z"/>
	<path class="st0" d="M-60.7,25.1c-0.4-0.1-0.8,0-1.1,0.3c-1.2,1.7-2.1,3.5-2.8,5.4c-0.2,0-0.3,0.2-0.4,0.3c0.7-1.9,1.3-3.7,1.7-5.7
		c0.1-0.6-0.8-1.1-1.2-0.6c-3.4,3.2-4.5,9.2-4.9,13.6c-0.1,1.1-0.2,2.2-0.2,3.3C-73,38.9-76.3,35.7-80,33c-4.2-3.1-8.9-5.5-13.6-7.7
		c-9-4.1-18.7-7.6-28.5-9.4c-11-2-24-3.4-36-1.9c-2.8,0.5-5.5,1.4-8.2,2.2c-1.2,0.6-2.3,1.2-3.5,1.9l-0.1,0c-0.5,0.3-1,0.5-1.5,0.8
		c-0.2,0.1-0.4,0.2-0.6,0.3l0,0c-0.6,0.4-1.3,0.7-1.9,1.1l0,0v0l-0.2,0.1c-0.4,0.2-0.8,0.5-1.2,0.7c-0.3,0.2-0.6,0.3-0.9,0.5
		c-0.7,0.4-1.3,0.9-2,1.3c-0.1,0.1-0.2,0.2-0.3,0.2l0,0c-0.2,0.2-0.4,0.3-0.7,0.5l-0.2,0.1c-0.4,0.3-0.7,0.6-1.1,0.9l-0.2,0.2
		l-0.1,0.1l0,0l-0.1,0.1c-0.3,0.2-0.5,0.5-0.8,0.7l-0.1,0.1l0,0l-0.1,0.1c-0.1,0.1-0.2,0.2-0.3,0.3c-0.3,0.3-0.6,0.6-0.9,0.9
		l-0.2,0.2l0,0l-0.2,0.2l0,0l0,0l0,0l0,0c-1,1-2,2.1-3,3.1l0,0l0,0c-1,1.1-2,2.1-3,3.2c0.2-0.1,0.3-0.1,0.5-0.2
		c-1.8,1.8-3.5,3.8-5,5.9c-0.4,0.6,0.4,1.1,0.9,0.8c3.4-2.4,6.4-5.5,9.6-8.3c0.7-0.2,1.3-0.4,2-0.5c0.4-0.1,0.7-0.2,1.1-0.3
		c-5,3-9.5,6.7-13.5,10.8c-0.4,0.5,0.2,1.1,0.6,0.7c1.4-1.1,2.8-2.2,4.3-3.3l0.1,0c-3.6,3.4-6.6,7.3-8.4,11.8
		c-0.3,0.8,0.9,1.3,1.3,0.6c1-1.4,2-2.8,3.1-4.1l-0.1,0.2c-0.2,0.6,0.7,1,1,0.5c1.9-2.9,4.1-5.6,6.6-8.1c0.5-0.3,1-0.6,1.6-0.9
		c-0.2,0.2-0.4,0.5-0.5,0.7c-2.5,1.7-4.6,3.7-5.9,6.3c-0.1,0.1-0.1,0.3,0,0.4c-2.1,2.3-4,4.9-5.6,7.8c-0.2,0.4,0.3,0.7,0.5,0.3
		c12.4-18.8,38.7-24.6,59.6-22.7c13.3,1.2,26,4.6,38.5,8.5c6.4,3.1,12.6,6.2,18.6,10.2c-4.6,0.4-9,1.6-12.9,3.8
		c-0.3,0.2-0.5,0.4-0.5,0.7c-1.1,0.2-1.2,1.8,0.1,2c7.9,1.4,15.9,2.2,23.8,3.1c3.7,0.4,7.7,2.3,10.5-1c2.1-2.5,1.3-8.2,1.2-11.1
		c-0.1-1.7-0.2-3.4-0.3-5.1c0.2-6.3,0-12.7-1.8-18.7C-58.7,23.2-61.2,23.7-60.7,25.1z M-85.9,33.2c1,0.6,1.9,1.3,2.8,2
		c-0.9-0.6-1.9-1.1-2.8-1.7L-85.9,33.2z M-165.4,28.7c-0.7,0.2-1.4,0.5-2.2,0.7c0.6-0.2,1.3-0.5,1.9-0.7L-165.4,28.7z M-166.4,24.7
		c-0.5,0-1,0-1.4,0c0.7-0.1,1.4-0.2,2.1-0.2C-166,24.6-166.2,24.7-166.4,24.7z M-72.5,50.8c-0.2,0-0.3,0-0.5,0c-0.5-0.5-1-1-1.6-1.5
		c0.1,0.1,0.3,0.1,0.4,0.2C-73.6,49.9-73,50.4-72.5,50.8z M-129.4,30.1c-0.9-0.1-1.9-0.2-2.8-0.3c0.9,0.1,1.8,0.2,2.7,0.3
		L-129.4,30.1L-129.4,30.1z M-67.9,51.1c-0.2,0-0.3,0-0.5,0c-0.5-0.4-1-0.8-1.5-1.2c0.5,0.2,1.1,0.3,1.6,0.4
		C-68.1,50.5-68,50.8-67.9,51.1z M-76.2,50.9c-1.3-1.1-2.7-2.2-4.1-3.2c0.1,0.1,0.2,0.1,0.4,0.2c1.5,0.9,2.9,1.9,4.2,3
		C-75.8,50.9-76,50.9-76.2,50.9z M-152.1,29.8c2.5-0.3,5-0.5,7.6-0.6c2.1,0,4.2,0,6.3,0c0.7,0.1,1.4,0.1,2.1,0.2l-0.2,0.1
		c-1.3-0.1-2.7-0.2-4-0.2C-144.2,29.2-148.2,29.4-152.1,29.8z M-181.8,27.1c0.4,0,0.7-0.1,1.1-0.1l0,0c-0.7,0.1-1.3,0.2-2,0.3
		C-182.4,27.3-182.1,27.2-181.8,27.1z M-157.3,17.2c-1.4,0.4-2.8,0.8-4.2,1.2c-1.4-0.1-2.9-0.1-4.3-0.2
		C-163,17.8-160.2,17.5-157.3,17.2z M-91.7,29.7c1.1,0.6,2.2,1.2,3.3,1.9c-1.1-0.4-2.2-0.9-3.3-1.3c-3.5-1.8-7-3.4-10.7-4.8
		c-7.2-2.6-14.6-4.1-22.1-4.9c-1.1-0.2-2.2-0.4-3.3-0.6c-7.1-1.1-14.3-1.3-21.5-1c-0.3,0-0.7,0-1-0.1c5-0.7,10.1-0.9,15.4-1
		c0.5,0,0.9-0.4,1-0.8c4.7,0.5,9.5,1.2,14.2,2.4C-110.2,21.8-100.4,25.2-91.7,29.7z M-65.3,32c-0.5,1.8-1.4,5.8-2,9.9
		c0.1-1.6,0.2-3.1,0.5-4.6C-66.4,35.5-65.8,33.7-65.3,32z M-60.6,27.9c0,0.2-0.1,0.4-0.1,0.7l-0.1,0C-60.8,28.4-60.7,28.2-60.6,27.9
		z"/>
</g>
<g>
	<path class="st1" d="M59.6,43.7c16.4-4,36.5-9,52,0.4c0.2,0.1,0.3-0.1,0.2-0.2c-6.3-6.3-15.7-7.1-24.3-7
		c-9.5,0.2-19.5,1.9-28.6,4.8C57.7,42.1,58.3,44,59.6,43.7z"/>
	<path class="st1" d="M50.1,44.9c0,0.2,0,0.5,0.2,0.6c0.7,0.5,1.3,0.2,2-0.1c0.4-0.2,0.7-0.3,1-0.6c0.2-0.1,0.3-0.2,0.4-0.4l0,0
		l0.1,0c0.3-0.2,0.1-0.7-0.2-0.7l-0.1,0c-0.2-0.2-0.5-0.2-0.7-0.1C51.9,43.6,50.3,43.9,50.1,44.9z"/>
	<path class="st1" d="M6.8,24.7C4.9,30.8,4.7,37.2,5,43.5c-0.1,1.7-0.2,3.4-0.3,5.1c-0.2,2.9-1,8.6,1.2,11.1c2.8,3.3,6.8,1.4,10.5,1
		c7.9-0.9,16-1.7,23.8-3.1c1.2-0.2,1.2-1.8,0.1-2c-0.1-0.3-0.2-0.5-0.5-0.7c-3.9-2.2-8.4-3.3-12.9-3.8c5.9-4,12.2-7.2,18.6-10.2
		c12.5-4,25.2-7.3,38.5-8.5c20.9-1.9,47.2,4,59.6,22.7c0.2,0.3,0.7,0,0.5-0.3c-1.6-2.9-3.5-5.5-5.6-7.8c0-0.1,0.1-0.2,0-0.4
		c-1.3-2.5-3.4-4.6-5.9-6.3c-0.2-0.2-0.4-0.5-0.5-0.7c0.5,0.3,1.1,0.6,1.6,0.9c2.5,2.4,4.8,5.1,6.6,8.1c0.4,0.6,1.2,0.2,1-0.5
		l-0.1-0.2c1.1,1.3,2.1,2.7,3.1,4.1c0.5,0.7,1.7,0.2,1.3-0.6c-1.7-4.4-4.7-8.3-8.4-11.8l0.1,0c1.4,1.1,2.8,2.2,4.3,3.3
		c0.5,0.4,1.1-0.3,0.6-0.7c-3.9-4.2-8.5-7.8-13.5-10.8c0.4,0.1,0.7,0.2,1.1,0.3c0.7,0.2,1.3,0.3,2,0.5c3.2,2.7,6.1,5.8,9.6,8.3
		c0.5,0.4,1.3-0.2,0.9-0.8c-1.5-2.1-3.2-4.1-5-5.9c0.2,0.1,0.3,0.1,0.5,0.2c-1-1.1-2-2.2-3-3.2l0,0l0,0c-1-1.1-2-2.1-3-3.1l0,0l0,0
		l0,0l0,0l-0.2-0.2l0,0l-0.2-0.2c-0.3-0.3-0.6-0.6-0.9-0.9c-0.1-0.1-0.2-0.2-0.3-0.3l-0.1-0.1l0,0l-0.1-0.1
		c-0.3-0.2-0.5-0.5-0.8-0.7l-0.1-0.1l0,0l-0.1-0.1l-0.2-0.2c-0.3-0.3-0.7-0.6-1.1-0.9l-0.2-0.1c-0.2-0.2-0.4-0.3-0.7-0.5l0,0
		c-0.1-0.1-0.2-0.2-0.3-0.2c-0.6-0.5-1.3-0.9-2-1.3c-0.3-0.2-0.6-0.3-0.9-0.5c-0.4-0.2-0.8-0.5-1.2-0.7l-0.2-0.1v0l0,0
		c-0.6-0.4-1.3-0.7-1.9-1.1l0,0c-0.2-0.1-0.4-0.2-0.6-0.3c-0.5-0.3-1-0.5-1.5-0.8l-0.1,0c-1.2-0.6-2.3-1.2-3.5-1.9
		c-2.7-0.8-5.4-1.7-8.2-2.2c-12.1-1.5-25-0.2-36,1.9c-9.8,1.8-19.5,5.2-28.5,9.4c-4.7,2.2-9.4,4.6-13.6,7.7
		c-3.7,2.7-6.9,5.9-10.4,8.8c0-1.1-0.1-2.2-0.2-3.3c-0.4-4.4-1.5-10.5-4.9-13.6c-0.5-0.4-1.4,0-1.2,0.6c0.4,2,1.1,3.8,1.7,5.7
		c-0.1-0.2-0.2-0.3-0.4-0.3c-0.7-1.9-1.6-3.7-2.8-5.4C10,25.1,9.6,25,9.2,25.1C9.7,23.7,7.2,23.2,6.8,24.7z M34.4,33.6
		c-0.9,0.6-1.9,1.1-2.8,1.7c0.9-0.7,1.8-1.3,2.8-2L34.4,33.6z M114.1,28.7c0.6,0.2,1.3,0.4,1.9,0.7c-0.7-0.2-1.4-0.5-2.2-0.7
		L114.1,28.7z M114.3,24.5c0.7,0.1,1.4,0.1,2.1,0.2c-0.5,0-1,0-1.4,0C114.7,24.7,114.5,24.6,114.3,24.5z M22.7,49.5
		c0.1-0.1,0.3-0.1,0.4-0.2c-0.5,0.5-1.1,1-1.6,1.5c-0.2,0-0.3,0-0.5,0C21.5,50.4,22.1,49.9,22.7,49.5z M77.9,30.1l0.1,0
		c0.9-0.1,1.8-0.2,2.7-0.3C79.8,29.9,78.8,30,77.9,30.1L77.9,30.1z M16.7,50.3c0.5-0.1,1.1-0.3,1.6-0.4c-0.5,0.4-1,0.8-1.5,1.2
		c-0.2,0-0.3,0-0.5,0C16.5,50.8,16.6,50.5,16.7,50.3z M24.1,50.9c1.4-1.1,2.8-2.1,4.2-3c0.1-0.1,0.2-0.1,0.4-0.2
		c-1.4,1-2.8,2.1-4.1,3.2C24.5,50.9,24.3,50.9,24.1,50.9z M88.9,29.3c-1.3,0-2.7,0.1-4,0.2l-0.2-0.1c0.7-0.1,1.4-0.1,2.1-0.2
		c2.1,0,4.2,0,6.3,0c2.6,0.1,5.1,0.3,7.6,0.6C96.7,29.4,92.7,29.2,88.9,29.3z M131.2,27.4c-0.7-0.1-1.3-0.2-2-0.3l0,0
		c0.4,0,0.7,0.1,1.1,0.1C130.6,27.2,130.9,27.3,131.2,27.4z M114.3,18.2c-1.4,0-2.9,0.1-4.3,0.2c-1.4-0.4-2.8-0.8-4.2-1.2
		C108.7,17.5,111.5,17.8,114.3,18.2z M68.2,19.6c4.8-1.1,9.5-1.9,14.2-2.4c0.1,0.4,0.5,0.8,1,0.8c5.3,0.1,10.4,0.4,15.4,1
		c-0.3,0-0.7,0-1,0.1c-7.2-0.3-14.3-0.1-21.5,1c-1.1,0.2-2.2,0.4-3.3,0.6c-7.5,0.8-14.9,2.2-22.1,4.9c-3.7,1.3-7.2,3-10.7,4.8
		c-1.1,0.4-2.2,0.8-3.3,1.3c1.1-0.7,2.2-1.3,3.3-1.9C48.9,25.2,58.7,21.8,68.2,19.6z M15.2,37.3c0.3,1.5,0.4,3.1,0.5,4.6
		c-0.5-4.1-1.4-8.1-2-9.9C14.3,33.7,14.9,35.5,15.2,37.3z M9.4,28.6l-0.1,0c0-0.2-0.1-0.4-0.1-0.7C9.2,28.2,9.3,28.4,9.4,28.6z"/>
</g>
</svg>
