<?xml version="1.0" encoding="utf-8"?>
<!-- Generator: Adobe Illustrator 22.1.0, SVG Export Plug-In . SVG Version: 6.00 Build 0)  -->
<svg version="1.1" id="Layer_1" xmlns="http://www.w3.org/2000/svg" xmlns:xlink="http://www.w3.org/1999/xlink" x="0px" y="0px"
	 viewBox="0 0 125 60" style="enable-background:new 0 0 125 60;" xml:space="preserve">
<style type="text/css">
	.st0{fill:#EF3E44;}
	.st1{fill:#FBE7C5;}
	.st2{fill:#F69F1A;}
</style>
<g>
	<path class="st0" d="M326.5,1.9c-0.3-1.1-1.8,0.3-2.9,0c0.9-2.3-0.7-1.9-2-1.7c-0.9,0.2-1.7,0.4-2.5,0.6
		c-11.4,3.2-22.4,7.6-33.5,11.6c-21.2,7.7-41.7,16.9-61.3,27.9c-1.4,0.8-2.7,1.6-4.1,2.5c-0.1-0.2-0.2-0.3-0.4-0.5
		c8.6-7,14.6-16.6,23.7-23c1-0.7,2.4-2,1.6-2.9c-0.9-1-1.8,0.7-2.5,1.4c-7.9,7.8-15.8,15.7-23.7,23.6c-1.2,1.7-2.8,3.1-4.5,4.3
		c0.9-2,2.5-3.4,4-4.8c6.4-7,12.7-14.1,19.3-21c4.7-4.8,10.3-8.5,16.3-11.8c-0.5,1.4-0.5,1.8-0.2,1.8c0.7,0.1,1-0.4,1.3-0.8
		c0.3-0.3,0.7-0.8,0.7-1.2c0-0.6,0.8-1.2,0.3-1.7c-0.6-0.6-1.1,0.1-1.7,0.4c-5.3,2.5-10.2,5.7-14.6,9.6c-3.2,2.8-6.4,5.7-9.6,8.5
		c-4.7,5-9.5,9.9-14,15.4c-0.3-1,0.3-1.3,0.6-1.7c3.4-4.3,7.1-8.2,11-12c0.4-0.4,1.5-0.7,0.9-1.7c-1.3,0.7-2.8,1.3-3.7,2.5
		c-5,6.1-10.5,11.8-15.3,18.1c-2.3,3.1-4.6,6.2-6.4,9.7c-0.6,1.2-3.5,5.1-0.5,4.9c1.9,0,2.8,0.2,4.4,0.1c6.8-0.8,13.6-1.4,20.5-1.8
		c7.2-0.4,14.3-0.3,21.5-0.2c0.7,0,1.5-0.2,2.1,0.3c1.2,1.1,2.5,0.7,3.7,0.3c1.3-0.4,2.5-1.2,3.9-0.7c0,1-1.1,1.2-1,2.2
		c0.5-0.2,0.9-0.3,1.3-0.5c0.8-0.4,1.5-0.9,1.5-1.9c0-1.3-1.2-1.2-1.9-1.3c-1.4-0.3-2.8-0.4-4.2-0.7c-1-0.2-2.6-0.3-2.8-0.8
		c-0.7-2.2-2.5-1.7-4-1.9c-3.5-0.3-7-0.5-10.9-0.7c27.4-12.9,54.4-25.5,81.2-39.9c-2.5-0.6-3.6,1-5.1,1.1c0.2-0.9,1.2-1.8,0.4-2.5
		c-0.7-0.7-1.6,0.2-2.4,0.4c-10.6,4-21.2,8.1-31.8,12.1c-2.1,1.2-4.4,2-6.7,2.8l-0.2-0.2l0,0l-0.2-0.2c2.2-1,4.4-1.9,6.6-2.9
		c8-3.6,15.9-7.4,24-10.8c7.1-2.9,13.7-7.1,21.4-8.7C325,3.3,326.8,3.2,326.5,1.9z M208.1,56.1c2.5-2.3,4.4-4.6,8-3.6
		c-1.6,1.2-3,2.1-4,3.7C211.2,57.5,209.8,55.8,208.1,56.1z M212.9,56.4c2.1-1.4,3.7-2.7,5.5-3.6c1.3-0.7,2.7,0.4,4.3,0.2
		c2.3-0.4,4.7-0.1,7-0.1C225.8,55.8,219,57.2,212.9,56.4z M223.9,50.4c1.1-0.8,1.4-1.8,2.6-1.4c0.2,0.1,0.3,0.5,0.3,0.5
		C226.2,50.3,225.4,50.6,223.9,50.4z M247.8,54.4c0,0.3,0,0.6,0,0.9c-5,0-10,0-15,0h0c-0.6-0.3-1.5,0.2-2-0.5
		c0.6-0.3,1.3-0.8,1.9-0.9C237.7,53.5,242.8,53.7,247.8,54.4z M273.3,27.8c11.9-4.9,23.7-10.3,35.9-14.5c1.3-0.5,2.4-0.5,3.6,0.1
		l0,0l0,0l0,0l-0.1,0l-0.1,0c-2,1.6-4.4,2.6-6.7,3.7c-21.2,11-42.9,21.2-64.6,31.3c-2.4,1.1-4.6,2.8-7.3,3.2
		c-2.2,0.3-4.3,0.1-6.5-0.5c0.2-0.9,0.9-1,1.4-1.3C243.4,41.7,258,34,273.3,27.8z M227.6,48.7c0.9-2.4,3.2-1.7,4.4-2.8
		C231.1,47.4,229.8,48.4,227.6,48.7z M235.1,43.7c2.7-1.3,5.3-2.6,8-3.8c-2.1,2.2-4.8,3.4-7.5,4.7c-0.3,0.2-0.8,0.7-1.1,0
		C234.4,44.1,234.7,43.9,235.1,43.7z M247,38.4c1.2-1.1,2.2-1.5,3.2-1.6C249.5,37.6,248.6,38.1,247,38.4z M269.6,27.3L269.6,27.3
		L269.6,27.3L269.6,27.3z M293.4,14.9c-23.8,9.8-46.9,21.2-69.5,33.5c-3.1,1.7-6.2,2.6-9.7,2.4c-0.7,0-1.4-0.1-1.9-0.7
		c-0.2-0.3,0-0.6,0.3-0.8c0.6-0.2,1.1-1.9,1.8,0c0.1,0.3,0.6,0,0.7-0.2c1.3-2.4,3.8-3.2,5.9-4.3c25.3-13.1,51.5-24,78.4-33.2
		c0.4-0.1,0.8-0.1,1.1-0.2c0.1,0.1,0.2,0.3,0.2,0.4C298.4,12.9,295.9,13.9,293.4,14.9z M318,3.9c-13.3,4.6-26.7,9.1-39.9,14.2
		c-11,4.3-21.8,8.9-32.6,13.4v0c-2.7,1.3-5.4,2.6-8.2,3.9c-0.1-0.2-0.2-0.4-0.3-0.6c2.6-1.3,5.3-2.5,7.9-3.8
		c18-8.8,36.4-16.6,55.5-22.9c6.4-2.1,12.6-4.9,19.2-6.4c0.7-0.2,1.3-0.4,2.2-0.1C320.9,3,319.4,3.4,318,3.9z"/>
</g>
<path class="st1" d="M62.9,29.6c-0.6,1.3-1.6,0.4-2.5,0.4c1.4,0.6,2.8,0.4,4.2,0C64,29.9,63.5,29.7,62.9,29.6
	C62.9,29.6,62.9,29.6,62.9,29.6z"/>
<path class="st1" d="M63.7,29.7c-0.7,0.7-1.7,0.2-2.5,0.4C62.1,30.1,63.1,30.9,63.7,29.7z"/>
<g>
	<path class="st2" d="M2.5,3.5c7.7,1.6,14.3,5.8,21.4,8.7c8.1,3.4,16,7.2,24,10.8c2.2,1,4.4,1.9,6.6,2.9l-0.2,0.2l0,0L54,26.2
		c-2.3-0.8-4.6-1.6-6.7-2.8c-10.6-4.1-21.2-8.1-31.8-12.1c-0.7-0.3-1.7-1.1-2.4-0.4c-0.7,0.8,0.3,1.7,0.4,2.5
		c-1.5-0.1-2.6-1.8-5.1-1.1c26.8,14.4,53.8,27,81.2,39.9c-3.9,0.2-7.4,0.4-10.9,0.7c-1.5,0.1-3.3-0.4-4,1.9
		c-0.2,0.5-1.8,0.6-2.8,0.8c-1.4,0.3-2.8,0.4-4.2,0.7c-0.8,0.2-1.9,0.1-1.9,1.3c0,1,0.6,1.6,1.5,1.9c0.4,0.2,0.8,0.3,1.3,0.5
		c0.1-1-1-1.2-1-2.2c1.4-0.5,2.6,0.3,3.9,0.7c1.3,0.4,2.5,0.9,3.7-0.3c0.6-0.5,1.4-0.3,2.1-0.3c7.2-0.1,14.3-0.2,21.5,0.2
		c6.9,0.4,13.7,1,20.5,1.8c1.5,0.2,2.4-0.1,4.4-0.1c3,0.2,0.1-3.7-0.5-4.9c-1.8-3.5-4.1-6.6-6.4-9.7c-4.8-6.3-10.3-12-15.3-18.1
		c-1-1.2-2.4-1.8-3.7-2.5c-0.5,1,0.5,1.3,0.9,1.7c3.9,3.8,7.6,7.8,11,12c0.3,0.4,0.9,0.8,0.6,1.7c-4.5-5.5-9.3-10.4-14-15.4
		c-3.2-2.8-6.4-5.7-9.6-8.5c-4.4-3.9-9.3-7.1-14.6-9.6c-0.5-0.2-1-1-1.7-0.4c-0.6,0.6,0.3,1.1,0.3,1.7c0,0.4,0.4,0.8,0.7,1.2
		c0.3,0.4,0.7,0.9,1.3,0.8c0.3-0.1,0.2-0.4-0.2-1.8c6,3.3,11.7,6.9,16.3,11.8c6.6,6.8,12.9,14,19.3,21c1.6,1.4,3.2,2.8,4,4.8
		c-1.7-1.3-3.2-2.6-4.5-4.3C99.8,33.5,91.9,25.6,84,17.8c-0.7-0.7-1.7-2.4-2.5-1.4c-0.8,0.9,0.6,2.2,1.6,2.9
		c9.2,6.4,15.2,16,23.7,23c-0.1,0.2-0.2,0.3-0.4,0.5c-1.4-0.8-2.7-1.7-4.1-2.5C82.7,29.4,62.2,20.2,41,12.5
		C29.9,8.4,18.9,4.1,7.5,0.8C6.6,0.6,5.8,0.4,5,0.2C3.6-0.1,2-0.4,2.9,1.9C1.8,2.3,0.3,0.8,0,1.9C-0.3,3.2,1.5,3.3,2.5,3.5z
		 M114.4,56.2c-1-1.6-2.4-2.5-4-3.7c3.6-1,5.4,1.3,8,3.6C116.7,55.8,115.3,57.5,114.4,56.2z M96.8,52.9c2.3,0,4.7-0.3,7,0.1
		c1.5,0.3,3-0.8,4.3-0.2c1.8,0.9,3.5,2.2,5.5,3.6C107.5,57.2,100.7,55.8,96.8,52.9z M99.6,49.5c0-0.1,0.1-0.5,0.3-0.5
		c1.2-0.5,1.6,0.6,2.6,1.4C101.1,50.6,100.3,50.3,99.6,49.5z M93.9,53.9c0.7,0,1.3,0.6,1.9,0.9c-0.5,0.7-1.4,0.3-2,0.5h0
		c-5,0-10,0-15,0c0-0.3,0-0.6,0-0.9C83.7,53.7,88.8,53.5,93.9,53.9z M97.5,49.9c0.5,0.3,1.2,0.4,1.4,1.3c-2.2,0.5-4.3,0.8-6.5,0.5
		c-2.8-0.4-4.9-2.1-7.3-3.2c-21.7-10-43.4-20.2-64.6-31.3c-2.3-1.2-4.6-2.2-6.7-3.7l-0.1,0l-0.1,0l0,0l0,0l0,0
		c1.2-0.6,2.3-0.6,3.6-0.1c12.2,4.2,24,9.6,35.9,14.5C68.5,34,83.1,41.7,97.5,49.9z M94.5,46c1.2,1.1,3.5,0.4,4.4,2.8
		C96.7,48.4,95.4,47.4,94.5,46z M91.9,44.6c-0.3,0.8-0.8,0.2-1.1,0c-2.6-1.4-5.4-2.6-7.5-4.7c2.7,1.3,5.3,2.6,8,3.8
		C91.8,43.9,92.1,44.1,91.9,44.6z M76.3,36.8c1.1,0.1,2,0.4,3.2,1.6C77.9,38.1,77,37.6,76.3,36.8z M56.9,27.3L56.9,27.3L56.9,27.3
		L56.9,27.3z M25.7,11.9c0.1-0.1,0.2-0.3,0.2-0.4c0.4,0.1,0.8,0.1,1.1,0.2c26.9,9.3,53.1,20.1,78.4,33.2c2.1,1.1,4.6,1.9,5.9,4.3
		c0.2,0.3,0.6,0.5,0.7,0.2c0.7-1.8,1.2-0.2,1.8,0c0.3,0.1,0.6,0.5,0.3,0.8c-0.5,0.6-1.2,0.7-1.9,0.7c-3.5,0.2-6.7-0.8-9.7-2.4
		C79.9,36.1,56.9,24.8,33.1,14.9C30.6,13.9,28.1,12.9,25.7,11.9z M4.6,1.7c0.9-0.3,1.5,0,2.2,0.1C13.4,3.3,19.6,6.1,26,8.2
		c19.1,6.2,37.5,14,55.5,22.9c2.6,1.3,5.3,2.5,7.9,3.8c-0.1,0.2-0.2,0.4-0.3,0.6c-2.7-1.3-5.4-2.6-8.2-3.9v0
		C70.1,27,59.3,22.3,48.4,18.1C35.2,13,21.8,8.5,8.5,3.9C7.1,3.4,5.6,3,4.6,1.7z"/>
</g>
</svg>
