<?xml version="1.0" encoding="utf-8"?>
<!-- Generator: Adobe Illustrator 22.1.0, SVG Export Plug-In . SVG Version: 6.00 Build 0)  -->
<svg version="1.1" id="Layer_1" xmlns="http://www.w3.org/2000/svg" xmlns:xlink="http://www.w3.org/1999/xlink" x="0px" y="0px"
	 viewBox="0 0 150 100" style="enable-background:new 0 0 150 100;" xml:space="preserve">
<style type="text/css">
	.st0{fill:#F69F1A;}
	.st1{fill:#EF3E44;}
</style>
<g>
	<path class="st0" d="M-115.9,55.6c-11.1-12.8-24.5-28.5-42.7-29.8c-0.2,0-0.2-0.3,0-0.3c8.8-1.5,16.9,3.3,23.8,8.4
		c7.7,5.6,14.8,12.9,20.5,20.4C-113.4,55.5-115,56.7-115.9,55.6z"/>
	<path class="st0" d="M-108.9,62.2c-0.1,0.2-0.3,0.4-0.5,0.4c-0.9,0-1.2-0.6-1.6-1.3c-0.2-0.3-0.3-0.7-0.5-1
		c-0.1-0.2-0.1-0.3-0.1-0.5l0,0l-0.1-0.1c-0.1-0.3,0.3-0.6,0.6-0.5l0.1,0c0.3,0,0.5,0.2,0.7,0.3C-109.6,60.1-108.4,61.2-108.9,62.2z
		"/>
	<path class="st0" d="M-64.1,69.7c-0.2-0.3-0.6-0.5-1.1-0.3c-2,0.7-3.8,1.6-5.4,2.8c-0.2-0.1-0.3,0-0.5,0.1c1.6-1.2,3.2-2.3,4.7-3.7
		c0.5-0.5,0-1.3-0.6-1.2c-4.6,0.6-8.9,4.9-11.9,8.3c-0.7,0.9-1.4,1.7-2.1,2.6c-1.1-4.4-1.9-8.9-3.4-13.2c-1.7-5-4.1-9.6-6.7-14.1
		c-4.9-8.6-10.9-17-17.8-24.1c-7.8-8.1-17.5-16.7-28.2-22.4c-2.6-1.2-5.3-2.1-8-3c-1.3-0.2-2.6-0.4-3.9-0.5l0,0
		c-0.5-0.1-1.1-0.1-1.6-0.2c-0.2,0-0.4-0.1-0.6-0.1l0,0c-0.7-0.1-1.4-0.2-2.2-0.2l0,0l0,0l-0.2,0c-0.5,0-0.9-0.1-1.4-0.1h0
		c-0.3,0-0.7-0.1-1-0.1c-0.8,0-1.6-0.1-2.4,0c-0.1,0-0.3,0-0.4,0l0,0c-0.3,0-0.6,0-0.8,0l-0.2,0c-0.5,0-0.9,0-1.3,0.1
		c-0.1,0-0.2,0-0.3,0l-0.1,0l0,0l-0.1,0c-0.3,0-0.7,0.1-1,0.1l-0.2,0l0,0l-0.1,0c-0.1,0-0.3,0-0.4,0c-0.4,0.1-0.9,0.1-1.3,0.2
		c-0.1,0-0.2,0-0.3,0l0,0c-0.1,0-0.2,0-0.3,0l0,0l0,0l-0.1,0l0,0c-1.4,0.2-2.8,0.5-4.3,0.8l0,0l0,0c-1.4,0.3-2.8,0.6-4.3,0.9
		c0.2,0,0.3,0.1,0.5,0.2c-2.5,0.4-5,1.1-7.5,1.9c-0.7,0.2-0.3,1.1,0.3,1.1c4.2,0,8.4-0.8,12.6-1.2c0.7,0.2,1.3,0.5,1.9,0.7
		c0.3,0.1,0.7,0.3,1,0.4c-5.8-0.4-11.6-0.1-17.2,1c-0.6,0.1-0.5,1,0.1,1c1.8-0.1,3.6-0.1,5.4-0.2l0.1,0c-4.9,0.7-9.7,2.1-13.6,4.7
		c-0.7,0.5,0,1.5,0.7,1.3c1.6-0.6,3.3-1.1,4.9-1.6l-0.2,0.1c-0.5,0.4,0,1.2,0.6,1c3.2-1.3,6.6-2.2,10.1-2.7c0.6,0,1.2,0.1,1.8,0.2
		c-0.3,0.1-0.6,0.2-0.9,0.3c-3-0.1-5.9,0.4-8.5,1.7c-0.1,0.1-0.2,0.2-0.2,0.3c-3.1,0.7-6.1,1.7-9.1,3.1c-0.4,0.2-0.1,0.7,0.2,0.6
		c21-8.1,45.8,2.4,61.8,16c10.1,8.7,18.5,18.8,26.5,29.3c3.4,6.2,6.7,12.4,9.2,19.1c-4-2.3-8.3-3.9-12.7-4.4c-0.4,0-0.6,0.1-0.9,0.3
		c-1-0.5-2,0.8-1.1,1.7c5.6,5.7,11.7,11,17.6,16.3c2.7,2.4,5,6.3,9.1,5.3c3.2-0.8,5.8-5.9,7.4-8.4c0.9-1.4,1.8-2.9,2.7-4.3
		c3.9-5,7.3-10.3,9.4-16.3C-61.4,69.3-63.6,68.3-64.1,69.7z M-89.3,61.8c0.4,1.1,0.8,2.2,1.1,3.2c-0.4-1-0.9-2-1.3-3
		C-89.4,61.9-89.3,61.8-89.3,61.8z M-151.4,12c-0.7-0.2-1.4-0.5-2.2-0.7c0.7,0.2,1.3,0.4,2,0.6L-151.4,12z M-150,8.1
		c-0.4-0.3-0.8-0.6-1.2-0.8c0.6,0.3,1.2,0.7,1.8,1C-149.6,8.3-149.8,8.2-150,8.1z M-88.5,83.9c-0.1-0.1-0.3-0.2-0.4-0.3
		c-0.1-0.7-0.3-1.4-0.4-2.1c0.1,0.1,0.1,0.2,0.2,0.4C-89,82.5-88.7,83.2-88.5,83.9z M-122.9,34c-0.7-0.6-1.4-1.3-2.1-1.9
		c0.7,0.6,1.4,1.2,2,1.8L-122.9,34L-122.9,34z M-85,86.8c-0.1-0.1-0.2-0.2-0.4-0.3c-0.1-0.6-0.3-1.2-0.5-1.9
		c0.4,0.4,0.7,0.9,1.1,1.3C-84.8,86.2-84.9,86.5-85,86.8z M-91.6,81.8c-0.4-1.7-0.9-3.3-1.4-5c0.1,0.1,0.1,0.2,0.2,0.4
		c0.7,1.6,1.3,3.2,1.7,4.9C-91.3,82-91.4,81.9-91.6,81.8z M-141.3,20.6c2.2,1.2,4.4,2.5,6.5,3.9c1.7,1.2,3.4,2.4,5.1,3.6
		c0.5,0.5,1.1,0.9,1.6,1.4l-0.2,0c-1-0.8-2.1-1.7-3.1-2.5C-134.5,24.7-137.8,22.5-141.3,20.6z M-163.9,1.2c0.3,0.2,0.6,0.4,1,0.5
		l0,0c-0.6-0.3-1.2-0.6-1.8-0.9C-164.5,1-164.2,1.1-163.9,1.2z M-138.2,7.3c-1.4-0.5-2.7-1-4.1-1.5c-1.1-0.9-2.3-1.8-3.4-2.6
		C-143.2,4.5-140.7,5.9-138.2,7.3z M-92,55.5c0.6,1.1,1.1,2.3,1.6,3.4c-0.6-1-1.3-2-1.9-2.9c-1.8-3.5-3.7-6.9-5.9-10.1
		c-4.3-6.3-9.5-11.8-15.2-16.8c-0.8-0.8-1.5-1.6-2.3-2.4c-5.2-5-10.9-9.3-16.9-13.2c-0.3-0.2-0.5-0.4-0.8-0.6
		c4.5,2.4,8.8,5.1,13.1,8.1c0.4,0.3,0.9,0.2,1.2-0.1c3.6,3.1,7,6.5,10.2,10.2C-102.5,38.4-96.5,46.8-92,55.5z M-71.8,72.7
		c-1.5,1.2-4.5,3.9-7.3,6.9c1-1.2,2-2.4,3.1-3.5C-74.7,74.9-73.2,73.8-71.8,72.7z M-65.6,72c-0.2,0.2-0.3,0.3-0.5,0.5l-0.1,0
		C-66,72.3-65.8,72.2-65.6,72z"/>
</g>
<g>
	<path class="st1" d="M64.4,55.6c11.1-12.8,24.5-28.5,42.7-29.8c0.2,0,0.2-0.3,0-0.3c-8.8-1.5-16.9,3.3-23.8,8.4
		c-7.7,5.6-14.8,12.9-20.5,20.4C61.9,55.5,63.5,56.7,64.4,55.6z"/>
	<path class="st1" d="M57.4,62.2c0.1,0.2,0.3,0.4,0.5,0.4c0.9,0,1.2-0.6,1.6-1.3c0.2-0.3,0.3-0.7,0.5-1c0.1-0.2,0.1-0.3,0.1-0.5l0,0
		l0.1-0.1c0.1-0.3-0.3-0.6-0.6-0.5l-0.1,0c-0.3,0-0.5,0.2-0.7,0.3C58.1,60.1,56.9,61.2,57.4,62.2z"/>
	<path class="st1" d="M10.4,70.8c2,6,5.5,11.3,9.4,16.3c0.9,1.4,1.8,2.9,2.7,4.3c1.6,2.5,4.2,7.6,7.4,8.4c4.2,1,6.4-2.8,9.1-5.3
		c6-5.3,12-10.7,17.6-16.3c0.9-0.9-0.1-2.2-1.1-1.7c-0.2-0.2-0.5-0.3-0.9-0.3c-4.4,0.5-8.7,2.1-12.7,4.4c2.5-6.7,5.8-12.9,9.2-19.1
		C59,51.1,67.4,41,77.5,32.3c16-13.6,40.8-24.1,61.8-16c0.4,0.1,0.6-0.4,0.2-0.6c-3-1.4-6-2.5-9.1-3.1c0-0.1-0.1-0.2-0.2-0.3
		c-2.6-1.3-5.5-1.7-8.5-1.7c-0.3-0.1-0.6-0.2-0.9-0.3c0.6-0.1,1.2-0.2,1.8-0.2c3.5,0.5,6.8,1.4,10.1,2.7c0.6,0.2,1.1-0.6,0.6-1
		l-0.2-0.1c1.6,0.5,3.3,1,4.9,1.6c0.8,0.3,1.5-0.8,0.7-1.3c-4-2.6-8.7-4-13.6-4.7l0.1,0c1.8,0,3.6,0.1,5.4,0.2c0.6,0,0.7-0.8,0.1-1
		c-5.6-1.1-11.4-1.4-17.2-1c0.3-0.1,0.7-0.3,1-0.4c0.6-0.2,1.3-0.5,1.9-0.7c4.2,0.4,8.4,1.2,12.6,1.2c0.6,0,1-0.9,0.3-1.1
		c-2.5-0.9-5-1.5-7.5-1.9c0.2,0,0.3-0.1,0.5-0.2c-1.5-0.3-2.9-0.6-4.3-0.9l0,0l0,0c-1.4-0.3-2.8-0.6-4.3-0.8l0,0l-0.1,0l0,0l0,0
		l-0.3,0l0,0l-0.3,0c-0.4-0.1-0.9-0.1-1.3-0.2c-0.1,0-0.3,0-0.4,0l-0.1,0l0,0l-0.2,0c-0.3,0-0.7-0.1-1-0.1l-0.1,0l0,0l-0.1,0l-0.3,0
		c-0.4,0-0.9-0.1-1.3-0.1l-0.2,0c-0.3,0-0.6,0-0.8,0l0,0c-0.1,0-0.3,0-0.4,0c-0.8,0-1.6,0-2.4,0c-0.3,0-0.7,0.1-1,0.1
		c-0.5,0-0.9,0.1-1.4,0.1l-0.2,0l0,0l0,0c-0.7,0.1-1.4,0.2-2.2,0.2l0,0c-0.2,0-0.4,0.1-0.6,0.1c-0.5,0.1-1.1,0.1-1.6,0.2l-0.1,0
		c-1.3,0.2-2.6,0.3-3.9,0.5c-2.7,0.9-5.4,1.8-8,3c-10.7,5.7-20.4,14.3-28.2,22.4c-6.9,7.1-12.9,15.5-17.8,24.1
		c-2.6,4.5-5,9.2-6.7,14.1c-1.5,4.3-2.3,8.8-3.4,13.2c-0.6-0.9-1.3-1.7-2.1-2.6c-2.9-3.4-7.3-7.7-11.9-8.3c-0.6-0.1-1.1,0.8-0.6,1.2
		c1.5,1.4,3.1,2.5,4.7,3.7c-0.2-0.1-0.4-0.1-0.5-0.1c-1.7-1.2-3.5-2.1-5.4-2.8c-0.4-0.2-0.8,0-1.1,0.3C12.1,68.3,9.9,69.3,10.4,70.8
		z M38,62c-0.4,1-0.9,2-1.3,3c0.4-1.1,0.7-2.2,1.1-3.2L38,62z M100.1,11.9c0.7-0.2,1.3-0.4,2-0.6c-0.7,0.2-1.4,0.4-2.2,0.7
		L100.1,11.9z M97.8,8.3c0.6-0.4,1.2-0.7,1.8-1c-0.4,0.3-0.8,0.6-1.2,0.8C98.3,8.2,98.1,8.3,97.8,8.3z M37.7,81.8
		c0.1-0.1,0.1-0.2,0.2-0.4c-0.2,0.7-0.3,1.4-0.4,2.1c-0.1,0.1-0.3,0.2-0.4,0.3C37.2,83.2,37.5,82.5,37.7,81.8z M71.4,34l0.1-0.1
		c0.7-0.6,1.4-1.2,2-1.8C72.8,32.7,72.1,33.3,71.4,34L71.4,34z M33.2,85.9c0.4-0.4,0.7-0.8,1.1-1.3c-0.2,0.6-0.3,1.2-0.5,1.9
		c-0.1,0.1-0.2,0.2-0.4,0.3C33.4,86.5,33.3,86.2,33.2,85.9z M39.6,82.1c0.5-1.7,1-3.3,1.7-4.9c0.1-0.1,0.1-0.2,0.2-0.4
		c-0.5,1.7-1,3.3-1.4,5C39.9,81.9,39.8,82,39.6,82.1z M79.9,27c-1.1,0.8-2.1,1.6-3.1,2.5l-0.2,0c0.5-0.5,1.1-0.9,1.6-1.4
		c1.7-1.2,3.4-2.5,5.1-3.6c2.1-1.4,4.3-2.7,6.5-3.9C86.3,22.5,83,24.7,79.9,27z M113.3,0.8c-0.6,0.3-1.2,0.6-1.8,0.9l0,0
		c0.3-0.2,0.6-0.4,1-0.5C112.7,1.1,113,1,113.3,0.8z M94.2,3.2c-1.1,0.9-2.3,1.7-3.4,2.6c-1.4,0.5-2.7,0.9-4.1,1.5
		C89.2,5.9,91.7,4.5,94.2,3.2z M57.4,31c3.2-3.7,6.7-7.1,10.2-10.2c0.3,0.3,0.8,0.4,1.3,0.1c4.4-3,8.6-5.7,13.1-8.1
		c-0.3,0.2-0.5,0.4-0.8,0.6c-6,3.9-11.7,8.2-16.9,13.2c-0.8,0.8-1.6,1.6-2.3,2.4c-5.6,5-10.8,10.5-15.2,16.8
		c-2.2,3.2-4.2,6.6-5.9,10.1c-0.7,1-1.3,2-1.9,2.9c0.5-1.1,1-2.3,1.6-3.4C45,46.8,51,38.4,57.4,31z M24.5,76.2
		c1.1,1.1,2.1,2.3,3.1,3.5c-2.8-3-5.8-5.7-7.3-6.9C21.7,73.8,23.2,74.9,24.5,76.2z M14.7,72.5l-0.1,0c-0.2-0.2-0.3-0.3-0.5-0.5
		C14.3,72.2,14.5,72.3,14.7,72.5z"/>
</g>
</svg>
