<?xml version="1.0" encoding="utf-8"?>
<!-- Generator: Adobe Illustrator 22.1.0, SVG Export Plug-In . SVG Version: 6.00 Build 0)  -->
<svg version="1.1" id="Layer_1" xmlns="http://www.w3.org/2000/svg" xmlns:xlink="http://www.w3.org/1999/xlink" x="0px" y="0px"
	 viewBox="0 0 150 100" style="enable-background:new 0 0 150 100;" xml:space="preserve">
<style type="text/css">
	.st0{fill:#F69F1A;}
	.st1{fill:#EF3E44;}
</style>
<g>
	<path class="st0" d="M85.6,55.6C74.5,42.8,61.1,27.2,42.9,25.9c-0.2,0-0.2-0.3,0-0.3c8.8-1.5,16.9,3.3,23.8,8.4
		c7.7,5.6,14.8,12.9,20.5,20.4C88.1,55.5,86.5,56.7,85.6,55.6z"/>
	<path class="st0" d="M92.6,62.2c-0.1,0.2-0.3,0.4-0.5,0.4c-0.9,0-1.2-0.6-1.6-1.3c-0.2-0.3-0.3-0.7-0.5-1c-0.1-0.2-0.1-0.3-0.1-0.5
		l0,0l-0.1-0.1c-0.1-0.3,0.3-0.6,0.6-0.5l0.1,0c0.3,0,0.5,0.2,0.7,0.3C91.9,60.1,93.1,61.2,92.6,62.2z"/>
	<path class="st0" d="M137.4,69.7c-0.2-0.3-0.6-0.5-1.1-0.3c-2,0.7-3.8,1.6-5.4,2.8c-0.2-0.1-0.3,0-0.5,0.1c1.6-1.2,3.2-2.3,4.7-3.7
		c0.5-0.5,0-1.3-0.6-1.2c-4.6,0.6-8.9,4.9-11.9,8.3c-0.7,0.9-1.4,1.7-2.1,2.6c-1.1-4.4-1.9-8.9-3.4-13.2c-1.7-5-4.1-9.6-6.7-14.1
		c-4.9-8.6-10.9-17-17.8-24.1c-7.8-8.1-17.5-16.7-28.2-22.4c-2.6-1.2-5.3-2.1-8-3c-1.3-0.2-2.6-0.4-3.9-0.5l0,0
		c-0.5-0.1-1.1-0.1-1.6-0.2c-0.2,0-0.4-0.1-0.6-0.1l0,0c-0.7-0.1-1.4-0.2-2.2-0.2l0,0l0,0l-0.2,0c-0.5,0-0.9-0.1-1.4-0.1h0
		c-0.3,0-0.7-0.1-1-0.1c-0.8,0-1.6-0.1-2.4,0c-0.1,0-0.3,0-0.4,0l0,0c-0.3,0-0.6,0-0.8,0l-0.2,0c-0.5,0-0.9,0-1.3,0.1
		c-0.1,0-0.2,0-0.3,0l-0.1,0l0,0l-0.1,0c-0.3,0-0.7,0.1-1,0.1l-0.2,0l0,0l-0.1,0c-0.1,0-0.3,0-0.4,0c-0.4,0.1-0.9,0.1-1.3,0.2
		c-0.1,0-0.2,0-0.3,0l0,0c-0.1,0-0.2,0-0.3,0l0,0l0,0l-0.1,0l0,0c-1.4,0.2-2.8,0.5-4.3,0.8l0,0l0,0C30.4,1.7,29,2,27.6,2.3
		c0.2,0,0.3,0.1,0.5,0.2c-2.5,0.4-5,1.1-7.5,1.9c-0.7,0.2-0.3,1.1,0.3,1.1c4.2,0,8.4-0.8,12.6-1.2c0.7,0.2,1.3,0.5,1.9,0.7
		c0.3,0.1,0.7,0.3,1,0.4c-5.8-0.4-11.6-0.1-17.2,1c-0.6,0.1-0.5,1,0.1,1c1.8-0.1,3.6-0.1,5.4-0.2l0.1,0C19.9,8,15.1,9.4,11.2,12
		c-0.7,0.5,0,1.5,0.7,1.3c1.6-0.6,3.3-1.1,4.9-1.6l-0.2,0.1c-0.5,0.4,0,1.2,0.6,1c3.2-1.3,6.6-2.2,10.1-2.7c0.6,0,1.2,0.1,1.8,0.2
		c-0.3,0.1-0.6,0.2-0.9,0.3c-3-0.1-5.9,0.4-8.5,1.7c-0.1,0.1-0.2,0.2-0.2,0.3c-3.1,0.7-6.1,1.7-9.1,3.1c-0.4,0.2-0.1,0.7,0.2,0.6
		c21-8.1,45.8,2.4,61.8,16C82.6,41,91,51.1,98.9,61.6c3.4,6.2,6.7,12.4,9.2,19.1c-4-2.3-8.3-3.9-12.7-4.4c-0.4,0-0.6,0.1-0.9,0.3
		c-1-0.5-2,0.8-1.1,1.7c5.6,5.7,11.7,11,17.6,16.3c2.7,2.4,5,6.3,9.1,5.3c3.2-0.8,5.8-5.9,7.4-8.4c0.9-1.4,1.8-2.9,2.7-4.3
		c3.9-5,7.3-10.3,9.4-16.3C140.1,69.3,137.9,68.3,137.4,69.7z M112.2,61.8c0.4,1.1,0.8,2.2,1.1,3.2c-0.4-1-0.9-2-1.3-3
		C112.1,61.9,112.2,61.8,112.2,61.8z M50.1,12c-0.7-0.2-1.4-0.5-2.2-0.7c0.7,0.2,1.3,0.4,2,0.6L50.1,12z M51.5,8.1
		c-0.4-0.3-0.8-0.6-1.2-0.8c0.6,0.3,1.2,0.7,1.8,1C51.9,8.3,51.7,8.2,51.5,8.1z M113,83.9c-0.1-0.1-0.3-0.2-0.4-0.3
		c-0.1-0.7-0.3-1.4-0.4-2.1c0.1,0.1,0.1,0.2,0.2,0.4C112.5,82.5,112.8,83.2,113,83.9z M78.6,34c-0.7-0.6-1.4-1.3-2.1-1.9
		c0.7,0.6,1.4,1.2,2,1.8L78.6,34L78.6,34z M116.5,86.8c-0.1-0.1-0.2-0.2-0.4-0.3c-0.1-0.6-0.3-1.2-0.5-1.9c0.4,0.4,0.7,0.9,1.1,1.3
		C116.7,86.2,116.6,86.5,116.5,86.8z M109.9,81.8c-0.4-1.7-0.9-3.3-1.4-5c0.1,0.1,0.1,0.2,0.2,0.4c0.7,1.6,1.3,3.2,1.7,4.9
		C110.2,82,110.1,81.9,109.9,81.8z M60.2,20.6c2.2,1.2,4.4,2.5,6.5,3.9c1.7,1.2,3.4,2.4,5.1,3.6c0.5,0.5,1.1,0.9,1.6,1.4l-0.2,0
		c-1-0.8-2.1-1.7-3.1-2.5C67,24.7,63.7,22.5,60.2,20.6z M37.6,1.2c0.3,0.2,0.6,0.4,1,0.5l0,0c-0.6-0.3-1.2-0.6-1.8-0.9
		C37,1,37.3,1.1,37.6,1.2z M63.3,7.3c-1.4-0.5-2.7-1-4.1-1.5c-1.1-0.9-2.3-1.8-3.4-2.6C58.3,4.5,60.8,5.9,63.3,7.3z M109.5,55.5
		c0.6,1.1,1.1,2.3,1.6,3.4c-0.6-1-1.3-2-1.9-2.9c-1.8-3.5-3.7-6.9-5.9-10.1c-4.3-6.3-9.5-11.8-15.2-16.8c-0.8-0.8-1.5-1.6-2.3-2.4
		c-5.2-5-10.9-9.3-16.9-13.2c-0.3-0.2-0.5-0.4-0.8-0.6c4.5,2.4,8.8,5.1,13.1,8.1c0.4,0.3,0.9,0.2,1.2-0.1c3.6,3.1,7,6.5,10.2,10.2
		C99,38.4,105,46.8,109.5,55.5z M129.7,72.7c-1.5,1.2-4.5,3.9-7.3,6.9c1-1.2,2-2.4,3.1-3.5C126.8,74.9,128.3,73.8,129.7,72.7z
		 M135.9,72c-0.2,0.2-0.3,0.3-0.5,0.5l-0.1,0C135.5,72.3,135.7,72.2,135.9,72z"/>
</g>
<g>
	<path class="st1" d="M265.9,55.6c11.1-12.8,24.5-28.5,42.7-29.8c0.2,0,0.2-0.3,0-0.3c-8.8-1.5-16.9,3.3-23.8,8.4
		c-7.7,5.6-14.8,12.9-20.5,20.4C263.4,55.5,265,56.7,265.9,55.6z"/>
	<path class="st1" d="M258.9,62.2c0.1,0.2,0.3,0.4,0.5,0.4c0.9,0,1.2-0.6,1.6-1.3c0.2-0.3,0.3-0.7,0.5-1c0.1-0.2,0.1-0.3,0.1-0.5
		l0,0l0.1-0.1c0.1-0.3-0.3-0.6-0.6-0.5l-0.1,0c-0.3,0-0.5,0.2-0.7,0.3C259.6,60.1,258.4,61.2,258.9,62.2z"/>
	<path class="st1" d="M211.9,70.8c2,6,5.5,11.3,9.4,16.3c0.9,1.4,1.8,2.9,2.7,4.3c1.6,2.5,4.2,7.6,7.4,8.4c4.2,1,6.4-2.8,9.1-5.3
		c6-5.3,12-10.7,17.6-16.3c0.9-0.9-0.1-2.2-1.1-1.7c-0.2-0.2-0.5-0.3-0.9-0.3c-4.4,0.5-8.7,2.1-12.7,4.4c2.5-6.7,5.8-12.9,9.2-19.1
		c7.9-10.5,16.3-20.6,26.5-29.3c16-13.6,40.8-24.1,61.8-16c0.4,0.1,0.6-0.4,0.2-0.6c-3-1.4-6-2.5-9.1-3.1c0-0.1-0.1-0.2-0.2-0.3
		c-2.6-1.3-5.5-1.7-8.5-1.7c-0.3-0.1-0.6-0.2-0.9-0.3c0.6-0.1,1.2-0.2,1.8-0.2c3.5,0.5,6.8,1.4,10.1,2.7c0.6,0.2,1.1-0.6,0.6-1
		l-0.2-0.1c1.6,0.5,3.3,1,4.9,1.6c0.8,0.3,1.5-0.8,0.7-1.3c-4-2.6-8.7-4-13.6-4.7l0.1,0c1.8,0,3.6,0.1,5.4,0.2c0.6,0,0.7-0.8,0.1-1
		c-5.6-1.1-11.4-1.4-17.2-1c0.3-0.1,0.7-0.3,1-0.4c0.6-0.2,1.3-0.5,1.9-0.7c4.2,0.4,8.4,1.2,12.6,1.2c0.6,0,1-0.9,0.3-1.1
		c-2.5-0.9-5-1.5-7.5-1.9c0.2,0,0.3-0.1,0.5-0.2c-1.5-0.3-2.9-0.6-4.3-0.9l0,0l0,0c-1.4-0.3-2.8-0.6-4.3-0.8l0,0l-0.1,0l0,0l0,0
		l-0.3,0l0,0l-0.3,0c-0.4-0.1-0.9-0.1-1.3-0.2c-0.1,0-0.3,0-0.4,0l-0.1,0l0,0l-0.2,0c-0.3,0-0.7-0.1-1-0.1l-0.1,0l0,0l-0.1,0l-0.3,0
		c-0.4,0-0.9-0.1-1.3-0.1l-0.2,0c-0.3,0-0.6,0-0.8,0l0,0c-0.1,0-0.3,0-0.4,0c-0.8,0-1.6,0-2.4,0c-0.3,0-0.7,0.1-1,0.1
		c-0.5,0-0.9,0.1-1.4,0.1l-0.2,0l0,0l0,0c-0.7,0.1-1.4,0.2-2.2,0.2l0,0c-0.2,0-0.4,0.1-0.6,0.1c-0.5,0.1-1.1,0.1-1.6,0.2l-0.1,0
		c-1.3,0.2-2.6,0.3-3.9,0.5c-2.7,0.9-5.4,1.8-8,3c-10.7,5.7-20.4,14.3-28.2,22.4c-6.9,7.1-12.9,15.5-17.8,24.1
		c-2.6,4.5-5,9.2-6.7,14.1c-1.5,4.3-2.3,8.8-3.4,13.2c-0.6-0.9-1.3-1.7-2.1-2.6c-2.9-3.4-7.3-7.7-11.9-8.3c-0.6-0.1-1.1,0.8-0.6,1.2
		c1.5,1.4,3.1,2.5,4.7,3.7c-0.2-0.1-0.4-0.1-0.5-0.1c-1.7-1.2-3.5-2.1-5.4-2.8c-0.4-0.2-0.8,0-1.1,0.3
		C213.6,68.3,211.4,69.3,211.9,70.8z M239.5,62c-0.4,1-0.9,2-1.3,3c0.4-1.1,0.7-2.2,1.1-3.2L239.5,62z M301.6,11.9
		c0.7-0.2,1.3-0.4,2-0.6c-0.7,0.2-1.4,0.4-2.2,0.7L301.6,11.9z M299.3,8.3c0.6-0.4,1.2-0.7,1.8-1c-0.4,0.3-0.8,0.6-1.2,0.8
		C299.8,8.2,299.6,8.3,299.3,8.3z M239.2,81.8c0.1-0.1,0.1-0.2,0.2-0.4c-0.2,0.7-0.3,1.4-0.4,2.1c-0.1,0.1-0.3,0.2-0.4,0.3
		C238.7,83.2,239,82.5,239.2,81.8z M272.9,34l0.1-0.1c0.7-0.6,1.4-1.2,2-1.8C274.3,32.7,273.6,33.3,272.9,34L272.9,34z M234.7,85.9
		c0.4-0.4,0.7-0.8,1.1-1.3c-0.2,0.6-0.3,1.2-0.5,1.9c-0.1,0.1-0.2,0.2-0.4,0.3C234.9,86.5,234.8,86.2,234.7,85.9z M241.1,82.1
		c0.5-1.7,1-3.3,1.7-4.9c0.1-0.1,0.1-0.2,0.2-0.4c-0.5,1.7-1,3.3-1.4,5C241.4,81.9,241.3,82,241.1,82.1z M281.4,27
		c-1.1,0.8-2.1,1.6-3.1,2.5l-0.2,0c0.5-0.5,1.1-0.9,1.6-1.4c1.7-1.2,3.4-2.5,5.1-3.6c2.1-1.4,4.3-2.7,6.5-3.9
		C287.8,22.5,284.5,24.7,281.4,27z M314.8,0.8c-0.6,0.3-1.2,0.6-1.8,0.9l0,0c0.3-0.2,0.6-0.4,1-0.5C314.2,1.1,314.5,1,314.8,0.8z
		 M295.7,3.2c-1.1,0.9-2.3,1.7-3.4,2.6c-1.4,0.5-2.7,0.9-4.1,1.5C290.7,5.9,293.2,4.5,295.7,3.2z M258.9,31
		c3.2-3.7,6.7-7.1,10.2-10.2c0.3,0.3,0.8,0.4,1.3,0.1c4.4-3,8.6-5.7,13.1-8.1c-0.3,0.2-0.5,0.4-0.8,0.6c-6,3.9-11.7,8.2-16.9,13.2
		c-0.8,0.8-1.6,1.6-2.3,2.4c-5.6,5-10.8,10.5-15.2,16.8c-2.2,3.2-4.2,6.6-5.9,10.1c-0.7,1-1.3,2-1.9,2.9c0.5-1.1,1-2.3,1.6-3.4
		C246.5,46.8,252.5,38.4,258.9,31z M226,76.2c1.1,1.1,2.1,2.3,3.1,3.5c-2.8-3-5.8-5.7-7.3-6.9C223.2,73.8,224.7,74.9,226,76.2z
		 M216.2,72.5l-0.1,0c-0.2-0.2-0.3-0.3-0.5-0.5C215.8,72.2,216,72.3,216.2,72.5z"/>
</g>
</svg>
